<svg version="1.0" xmlns="http://www.w3.org/2000/svg"
 width="1920.000000pt" height="1536.000000pt" viewBox="0 0 1920.000000 1536.000000"
 preserveAspectRatio="xMidYMid meet">

<g transform="translate(0.000000,1536.000000) scale(0.100000,-0.100000)"
fill="beige" stroke="none">
<path d="M9255 12201 l-70 -6 -65 -97 c-36 -54 -112 -169 -170 -257 -97 -147
-108 -160 -140 -166 -81 -14 -363 -87 -460 -119 l-105 -34 -272 139 -273 138
-127 -64 c-203 -102 -566 -320 -586 -352 -3 -5 -13 -143 -23 -306 l-17 -297
-223 -224 -224 -224 -293 -17 c-160 -9 -298 -18 -304 -20 -28 -9 -224 -327
-340 -552 l-83 -163 138 -276 139 -276 -24 -71 c-39 -118 -90 -305 -114 -421
-23 -107 -23 -108 -63 -133 -47 -29 -283 -184 -395 -258 l-76 -51 -6 -74 c-8
-97 -8 -583 0 -680 l6 -75 124 -82 c68 -46 128 -80 134 -76 5 3 8 2 5 -3 -3
-5 51 -47 121 -92 l127 -84 37 -165 c21 -91 58 -226 82 -301 l44 -136 -140
-274 -140 -274 84 -161 c110 -211 305 -532 334 -550 5 -3 142 -13 306 -22
l298 -18 224 -224 223 -224 17 -292 c9 -161 18 -298 20 -304 10 -30 363 -245
588 -359 l128 -64 276 139 275 138 101 -34 c95 -31 374 -104 459 -118 34 -7
43 -17 155 -188 65 -100 141 -215 168 -257 l51 -75 74 -6 c97 -8 583 -8 680 0
l75 6 65 97 c36 54 112 169 170 257 97 147 108 160 140 166 85 15 364 87 459
119 l105 35 273 -139 273 -139 127 64 c203 102 566 320 586 352 3 5 13 143 23
306 l17 297 223 224 224 224 293 17 c160 9 298 18 304 20 28 9 224 327 340
552 l83 163 -136 272 c-76 150 -137 278 -137 283 1 6 19 69 42 140 23 72 58
203 78 293 l38 162 179 118 c99 64 214 140 256 167 l75 51 6 74 c8 97 8 583 0
680 l-6 75 -123 82 c-68 46 -129 80 -135 76 -5 -3 -8 -2 -5 3 3 5 -52 47 -122
93 l-128 84 -12 61 c-19 103 -80 332 -116 438 l-34 101 141 274 140 275 -84
161 c-46 89 -106 198 -132 242 -69 115 -192 302 -202 308 -4 3 -142 13 -306
22 l-298 18 -224 224 -223 224 -17 292 c-9 161 -18 298 -20 304 -10 30 -363
245 -588 359 l-128 64 -276 -139 -275 -138 -101 34 c-95 31 -374 104 -459 118
-34 7 -43 17 -155 188 -65 100 -141 215 -168 257 l-51 75 -74 6 c-93 8 -590 8
-685 0z m625 -1282 c657 -60 1228 -289 1760 -707 121 -96 394 -369 491 -492
477 -604 719 -1291 719 -2040 0 -595 -158 -1166 -465 -1678 -223 -372 -556
-727 -926 -989 -1033 -730 -2445 -778 -3533 -121 -381 231 -730 557 -994 930
-291 413 -483 910 -559 1448 -25 177 -25 643 0 820 65 464 211 882 442 1268
223 372 556 727 926 989 447 316 1002 519 1564 572 132 12 443 13 575 0z"/>
<path d="M9330 10720 c-1484 -141 -2643 -1306 -2770 -2785 -106 -1248 568
-2439 1695 -2990 322 -158 642 -253 995 -297 137 -17 563 -17 700 0 353 44
673 139 995 297 1045 511 1705 1570 1705 2735 0 1165 -660 2224 -1705 2735
-313 153 -606 243 -946 290 -136 19 -534 27 -669 15z m320 -40 c26 -26 25 -68
-2 -97 -27 -29 -65 -29 -95 -1 -46 43 -16 118 47 118 17 0 39 -9 50 -20z m125
-160 c414 -28 759 -124 1128 -312 659 -338 1165 -929 1400 -1638 189 -567 189
-1213 0 -1780 -284 -856 -957 -1529 -1813 -1813 -814 -271 -1726 -150 -2448
323 -535 350 -942 880 -1145 1490 -189 567 -189 1213 0 1780 284 856 957 1529
1813 1813 213 71 466 121 692 136 177 12 206 12 373 1z m-128 -5742 c46 -43
16 -118 -47 -118 -62 0 -92 71 -48 117 27 29 65 29 95 1z"/>
<path fill="#00AAFF" d="M9295 10425 c-1148 -133 -2085 -947 -2370 -2061 -63 -244 -79 -385
-79 -684 0 -226 3 -286 22 -409 190 -1211 1112 -2133 2323 -2323 123 -19 183
-22 409 -22 226 0 286 3 409 22 1211 190 2133 1112 2323 2323 19 123 22 183
22 409 0 226 -3 286 -22 409 -196 1251 -1180 2196 -2433 2336 -160 18 -450 18
-604 0z m440 -480 c288 -60 505 -329 505 -625 0 -349 -291 -640 -640 -640
-349 0 -640 291 -640 640 0 237 141 465 350 569 139 68 279 87 425 56z m-1420
-820 c238 -50 440 -252 490 -490 95 -454 -306 -855 -760 -760 -182 38 -352
170 -434 335 -126 257 -81 540 119 741 155 155 369 219 585 174z m2840 0 c232
-49 425 -236 485 -471 102 -397 -208 -794 -620 -794 -237 0 -465 141 -569 350
-126 256 -80 542 118 741 156 155 370 219 586 174z m-1452 -1020 c176 -46 299
-179 330 -359 31 -181 -73 -380 -238 -457 -89 -42 -177 -56 -260 -42 -193 33
-335 175 -368 367 -51 301 240 568 536 491z m-1388 -620 c288 -60 505 -329
505 -625 0 -349 -291 -640 -640 -640 -290 0 -548 202 -620 486 -102 396 204
789 615 793 39 0 102 -6 140 -14z m2840 0 c347 -73 573 -435 485 -779 -72
-284 -330 -486 -620 -486 -237 0 -465 141 -569 350 -126 256 -80 542 118 741
156 155 370 219 586 174z m-1420 -820 c288 -60 505 -329 505 -625 0 -349 -291
-640 -640 -640 -349 0 -640 291 -640 640 0 237 141 465 350 569 139 68 279 87
425 56z"/>
</g>
</svg>
